<?xml version="1.0" encoding="UTF-8"?>
<svg width="320px" height="320px" viewBox="0 0 320 320" version="1.1" xmlns="http://www.w3.org/2000/svg" xmlns:xlink="http://www.w3.org/1999/xlink">
    <!-- Generator: Sketch 49.3 (51167) - http://www.bohemiancoding.com/sketch -->
    <title>unwind-light</title>
    <desc>Created with Sketch.</desc>
    <defs></defs>
    <g id="unwind" stroke="none" stroke-width="1" fill="none" fill-rule="evenodd">
        <path d="M-1.42108547e-14,0 L320,0 L320,320 L-1.42108547e-14,320 L-1.42108547e-14,0 Z M144.82,137.144 L122.932,137.144 L122.932,190.776 C122.932,198.797373 124.553317,205.602639 127.796,211.192 C131.038683,216.781361 135.454639,220.962653 141.044,223.736 C146.633361,226.509347 152.969298,227.896 160.052,227.896 C167.134702,227.896 173.555971,226.488014 179.316,223.672 C185.076029,220.855986 189.66265,216.674694 193.076,211.128 C196.48935,205.581306 198.196,198.797373 198.196,190.776 L198.196,137.144 L176.308,137.144 L176.308,190.904 C176.308,196.280027 174.94268,200.418652 172.212,203.32 C169.48132,206.221348 165.556026,207.672 160.436,207.672 C155.315974,207.672 151.433347,206.221348 148.788,203.32 C146.142653,200.418652 144.82,196.280027 144.82,190.904 L144.82,137.144 Z M123.88,119.376 L139.88,119.376 C140.733338,113.743972 143.463977,110.928 148.072,110.928 C149.608008,110.928 151.079993,111.226664 152.488,111.824 C153.896007,112.421336 155.666656,113.317327 157.8,114.512 C160.616014,116.048008 163.111989,117.242662 165.288,118.096 C167.464011,118.949338 169.91732,119.376 172.648,119.376 C179.304033,119.376 184.850644,117.114689 189.288,112.592 C193.725356,108.069311 196.711992,101.072047 198.248,91.6 L181.992,91.6 C181.223996,97.2320282 178.536023,100.048 173.928,100.048 C172.391992,100.048 170.898674,99.7493363 169.448,99.152 C167.997326,98.5546637 166.24801,97.6586726 164.2,96.464 C161.383986,94.8426586 158.888011,93.6266707 156.712,92.816 C154.535989,92.0053293 152.08268,91.6 149.352,91.6 C142.695967,91.6 137.170689,93.8613107 132.776,98.384 C128.381311,102.906689 125.416008,109.903953 123.88,119.376 Z" id="Combined-Shape" fill="#FF234F"></path>
    </g>
</svg>